#!OML:ASF E:\Style4\Style4.ASF
:FULLY-SPECIFIED
:DEGREES
3583
root -0.264112 16.8944 -2.12859 8.46912 2.44741 2.20654
lowerback 17.9543 1.46302 -0.270625
upperback 9.16982 1.87745 0.0327036
thorax -0.251974 0.933969 -0.144021
lowerneck -0.965449 -5.07187 -4.99258
upperneck 3.63936 -6.77886 3.85637
head 1.63847 -3.38499 1.94394
rclavicle -1.70955e-014 1.94809e-014
rhumerus 53.075 10.4706 -40.574
rradius 52.6846
rwrist 0.0366467
rhand 27.6727 7.67234
rfingers 7.12502
rthumb 51.603 -12.6662
lclavicle -1.70955e-014 1.94809e-014
lhumerus 51.8511 -17.7722 43.4027
lradius 64.6363
lwrist 10.7982
lhand 27.0392 32.0433
lfingers 7.12502
lthumb 51.0265 52.7099
rfemur -39.7247 -6.83318 18.9977
rtibia 54.2637
rfoot -20.2557 -17.8888
rtoes -16.2874
lfemur -39.1655 1.1066 -19.5966
ltibia 51.4185
lfoot -19.9019 5.58721
ltoes -18.1543
3584
root -0.265329 16.8762 -2.13067 8.31532 2.3957 2.20821
lowerback 18.0399 1.40508 -0.356239
upperback 9.30775 1.78948 0.0637985
thorax -0.151551 0.886576 -0.0473442
lowerneck -1.00836 -5.02126 -5.17065
upperneck 3.62541 -6.70683 3.89888
head 1.64755 -3.35055 1.99025
rclavicle 3.57812e-015 -8.34896e-015
rhumerus 53.5068 10.1342 -41.102
rradius 52.7893
rwrist 0.218568
rhand 27.3094 7.91552
rfingers 7.12502
rthumb 51.2726 -12.6125
lclavicle 3.57812e-015 -8.34896e-015
lhumerus 51.5891 -17.142 44.126
lradius 64.9153
lwrist 10.7704
lhand 26.4116 31.9641
lfingers 7.12502
lthumb 50.4539 52.9452
rfemur -39.7252 -6.83129 18.9929
rtibia 54.5635
rfoot -20.5684 -17.7082
rtoes -15.4073
lfemur -39.1654 1.16183 -19.6007
ltibia 51.7071
lfoot -20.0334 5.58002
ltoes -18.2728
3585
root -0.266312 16.861 -2.13122 8.17807 2.36224 2.17065
lowerback 18.1462 1.40313 -0.441855
upperback 9.36376 1.77466 0.13733
thorax -0.150744 0.874324 0.0792199
lowerneck -0.918661 -5.01082 -5.21029
upperneck 3.64839 -6.69378 3.83795
head 1.63747 -3.34628 1.97971
rclavicle 9.14409e-015 -7.15625e-015
rhumerus 53.6769 9.82643 -41.6669
rradius 52.8708
rwrist 0.445118
rhand 27.2889 8.59728
rfingers 7.12502
rthumb 51.2539 -11.9413
lclavicle 9.14409e-015 -7.15625e-015
lhumerus 51.3371 -16.7436 44.9104
lradius 65.1526
lwrist 10.841
lhand 25.8818 31.9176
lfingers 7.12502
lthumb 49.9695 53.1563
rfemur -39.7094 -6.83472 19.029
rtibia 54.7894
rfoot -20.7688 -17.596
rtoes -14.6928
lfemur -39.1497 1.16922 -19.5498
ltibia 51.9337
lfoot -20.1094 5.58424
ltoes -18.267
3586
root -0.266835 16.8485 -2.13035 8.07367 2.35672 2.20137
lowerback 18.3408 1.41787 -0.522895
upperback 9.3019 1.77978 0.147791
thorax -0.319457 0.873999 0.129314
lowerneck -0.847653 -5.01737 -5.14859
upperneck 3.87314 -6.70714 3.75863
head 1.69211 -3.35403 1.94237
rclavicle -3.18055e-015 1.74931e-014
rhumerus 53.591 9.54663 -42.3668
rradius 52.8823
rwrist 0.894647
rhand 27.7326 9.21085
rfingers 7.12502
rthumb 51.6574 -11.0961
lclavicle -3.18055e-015 1.74931e-014
lhumerus 50.9085 -16.5969 45.71
lradius 65.4646
lwrist 10.983
lhand 25.2657 31.7834
lfingers 7.12502
lthumb 49.405 53.313
rfemur -39.7016 -6.82703 18.9663
rtibia 54.9594
rfoot -20.6094 -17.8255
rtoes -16.166
lfemur -39.1238 1.14534 -19.5764
ltibia 52.09
lfoot -20.1874 5.65396
ltoes -18.6162
3587
root -0.266856 16.8388 -2.12848 7.9869 2.34621 2.30032
lowerback 18.2589 1.45246 -0.663102
upperback 9.39588 1.80432 0.152323
thorax -0.180891 0.881326 0.212282
lowerneck -0.856244 -5.07243 -5.10127
upperneck 4.05408 -6.78125 3.69839
head 1.75111 -3.39119 1.91061
rclavicle -8.74653e-015 1.23246e-014
rhumerus 53.6058 9.10364 -43.0494
rradius 52.8039
rwrist 1.54986
rhand 28.1434 9.6318
rfingers 7.12502
rthumb 52.0303 -10.4558
lclavicle -8.74653e-015 1.23246e-014
lhumerus 50.6512 -16.374 46.5047
lradius 65.6942
lwrist 11.0918
lhand 24.7159 31.6096
lfingers 7.12502
lthumb 48.9002 53.3912
rfemur -39.683 -6.84296 18.8347
rtibia 55.08
rfoot -20.4011 -18.0678
rtoes -17.7922
lfemur -39.0714 1.12782 -19.6829
ltibia 52.18
lfoot -20.2417 5.75234
ltoes -19.2858
3588
root -0.267196 16.8353 -2.12589 7.91951 2.36271 2.36644
lowerback 18.1932 1.44876 -0.752584
upperback 9.44221 1.7867 0.141395
thorax -0.0995026 0.869719 0.256753
lowerneck -0.772664 -5.11644 -5.08034
upperneck 4.18892 -6.84438 3.66605
head 1.78075 -3.42356 1.89555
rclavicle -2.66371e-014 1.23246e-014
rhumerus 53.6245 8.93065 -43.5982
rradius 52.7348
rwrist 1.70193
rhand 27.9159 9.37534
rfingers 7.12502
rthumb 51.8238 -10.8344
lclavicle -2.66371e-014 1.23246e-014
lhumerus 50.3687 -16.2185 47.1865
lradius 65.8456
lwrist 11.2053
lhand 24.2283 31.468
lfingers 7.12502
lthumb 48.4517 53.4673
rfemur -39.6229 -6.89402 18.7647
rtibia 55.1428
rfoot -20.633 -17.8416
rtoes -16.6573
lfemur -39.0006 1.09888 -19.7527
ltibia 52.1911
lfoot -20.2306 5.71445
ltoes -19.1947
3589
root -0.267752 16.8393 -2.12282 7.87227 2.38155 2.31292
lowerback 18.1643 1.42247 -0.75086
upperback 9.4399 1.7534 0.148357
thorax -0.087061 0.852987 0.269681
lowerneck -0.782847 -5.10936 -5.06074
upperneck 4.38066 -6.8352 3.6095
head 1.84099 -3.41967 1.87202
rclavicle 8.74653e-015 -5.56597e-015
rhumerus 53.6151 8.96879 -44.0626
rradius 52.6726
rwrist 1.51941
rhand 27.2527 8.76879
rfingers 7.12502
rthumb 51.2209 -11.7885
lclavicle 8.74653e-015 -5.56597e-015
lhumerus 49.9631 -16.1068 47.7838
lradius 66.068
lwrist 11.3945
lhand 23.8764 31.4787
lfingers 7.12502
lthumb 48.1276 53.6317
rfemur -39.512 -6.91268 18.8374
rtibia 55.0987
rfoot -20.8499 -17.6239
rtoes -15.2474
lfemur -38.9121 1.0877 -19.6822
ltibia 52.1323
lfoot -20.2418 5.55767
ltoes -18.2434
3590
root -0.265761 16.8494 -2.11632 7.85527 2.36978 2.2203
lowerback 18.0101 1.45223 -0.767016
upperback 9.46057 1.79262 0.217556
thorax 0.0110211 0.86986 0.348625
lowerneck -0.895063 -5.12614 -4.94232
upperneck 4.66496 -6.852 3.44408
head 1.94152 -3.42823 1.79171
rclavicle -9.14409e-015 -6.36111e-015
rhumerus 53.5188 8.95099 -44.4715
rradius 52.5583
rwrist 1.62922
rhand 26.9304 8.56747
rfingers 7.12502
rthumb 50.9273 -12.1544
lclavicle -9.14409e-015 -6.36111e-015
lhumerus 49.4856 -16.0877 48.495
lradius 66.3709
lwrist 11.4879
lhand 23.6291 31.4742
lfingers 7.12502
lthumb 47.8996 53.7337
rfemur -39.3808 -6.83604 18.9076
rtibia 54.9326
rfoot -20.8306 -17.7365
rtoes -15.66
lfemur -38.8008 1.05639 -19.5664
ltibia 52.0096
lfoot -20.2461 5.48834
ltoes -17.6471
3591
root -0.262289 16.8614 -2.10901 7.8441 2.31433 2.22301
lowerback 17.7232 1.47317 -0.567548
upperback 9.54768 1.84965 0.0528798
thorax 0.262533 0.909321 0.061816
lowerneck -0.871858 -5.16244 -4.58183
upperneck 4.71918 -6.90786 3.37504
head 1.93842 -3.45113 1.70484
rclavicle 0 1.59028e-014
rhumerus 53.2632 8.77514 -45.1421
rradius 52.4279
rwrist 1.86907
rhand 27.288 8.72798
rfingers 7.12502
rthumb 51.2531 -11.8111
lclavicle 0 1.59028e-014
lhumerus 49.252 -16.2525 48.722
lradius 66.6909
lwrist 11.7285
lhand 23.376 31.549
lfingers 7.12502
lthumb 47.6661 53.9161
rfemur -39.2321 -6.73922 18.8602
rtibia 54.6946
rfoot -20.7509 -17.8214
rtoes -16.1601
lfemur -38.6455 1.04641 -19.575
ltibia 51.8119
lfoot -20.1548 5.57671
ltoes -17.7858
3592
root -0.260786 16.8767 -2.10437 7.84233 2.33783 2.19441
lowerback 17.7182 1.43873 -0.594689
upperback 9.52185 1.80213 0.122388
thorax 0.234471 0.882814 0.157905
lowerneck -1.04947 -5.11755 -4.71919
upperneck 4.92293 -6.83836 3.332
head 2.03771 -3.41851 1.71067
rclavicle -3.81667e-014 2.42517e-014
rhumerus 53.1777 8.98039 -45.443
rradius 52.2935
rwrist 2.08833
rhand 27.7281 9.07108
rfingers 7.12502
rthumb 51.6533 -11.2383
lclavicle -3.81667e-014 2.42517e-014
lhumerus 48.7181 -16.2723 49.2923
lradius 66.8545
lwrist 11.8809
lhand 23.4811 31.8466
lfingers 7.12502
lthumb 47.7631 54.1692
rfemur -39.0566 -6.69322 18.8756
rtibia 54.422
rfoot -20.4459 -17.983
rtoes -16.9245
lfemur -38.488 0.984631 -19.5315
ltibia 51.5483
lfoot -20.0516 5.61976
ltoes -17.7349
